<svg xmlns="http://www.w3.org/2000/svg" width="500" viewBox="60 125 255 65" height="130" preserveAspectRatio="xMidYMid meet">
  <path style="stroke:none;fill-rule:nonzero;fill:#100f0d;fill-opacity:1;" d="M 311.660156 200.945312 L 277.605469 180.277344 L 272.472656 178.945312 L 245.6875 158.273438 L 256.621094 180.945312 L 250.820312 174.5 L 245.90625 173.167969 L 214.660156 148.496094 L 212.652344 143.382812 L 193.679688 125.378906 L 178.945312 139.382812 L 192.5625 157.386719 L 193.230469 161.609375 L 208.707031 182.945312 L 187.925781 169.445312 L 185.605469 170.445312 L 170.039062 162.441406 L 164.515625 172.445312 L 146.433594 159.941406 L 142.917969 163.441406 C 142.917969 163.441406 157.945312 184.925781 162.6875 190.566406 C 155.972656 184.613281 126.847656 160.941406 126.847656 160.941406 L 119.316406 168.445312 L 130.363281 191.90625 L 116.808594 181.445312 L 109.777344 182.445312 L 103.246094 177.945312 L 63.570312 200.945312 L 131.367188 140.441406 L 148.945312 150.941406 L 187.925781 107.9375 L 233.316406 145.441406 L 238.839844 138.441406 L 311.660156 200.945312 "/>
</svg>